<svg viewBox="0 0 1144 172" xmlns="http://www.w3.org/2000/svg"><title>begamble</title><g fill-rule="nonzero" fill="none"><g fill="#FFF"><path d="M0 0h1144v172H0V0zm489.74 30.29c-.11 3.07.14 6.13.8 9.14 3.05-.02 6.12 0 9.17.27 0 28.72-.02 57.44.02 86.16-3.1.83-6.32.62-9.48.61-.86 3.18-.62 6.48-.52 9.73 6.55-.05 13.12.29 19.65-.13.27-.27.8-.81 1.06-1.08.18-4.09-.09-8.18.18-12.26 4.99 5.43 9.81 11.96 17.49 13.57 5.34.42 11.24 1.09 16.04-1.83 10.05-5.6 16.12-16.54 18.16-27.6.51-6.22.49-12.51-.04-18.73-2.1-12.28-8.97-25.23-21.37-29.58-4.24-.58-8.58-.52-12.84-.09-7.9 2.25-12.65 9.42-18.22 14.91-.02-14.46.03-28.92-.02-43.38-6.69.12-13.4-.29-20.08.29zm81.66-.21c0 2.8.01 5.6.07 8.4 3.3.04 6.6.07 9.9.15.14 29.25.2 58.51-.03 87.76-3.59.09-7.17.09-10.75.2-.1 2.95-.12 5.9-.18 8.86 5.46 1.18 11.05.73 16.59.79 4.89 0 9.82.25 14.66-.66-.04-3.02-.06-6.05-.15-9.07-3.05-.7-8.37 1.74-9.68-1.88-.18-31.54 0-63.09-.09-94.63-6.78.03-13.56-.08-20.34.08zm-339.05 2.51c-6.17 1.58-11.97 4.73-16.42 9.31-8.66 8.28-13.32 19.86-15.41 31.46-2.45 15.1-.31 31.2 7.34 44.58 5.39 9.49 14.42 17.17 25.14 19.77 4.19.43 8.45.46 12.63-.08 9.1-2.62 17.68-8.47 21.66-17.33 1.03 5.03 1.03 10.16 1.05 15.27 3.28-.2 6.7.5 9.89-.41.58-4.36.13-8.78.26-13.16-.14-12.09.27-24.2-.2-36.27-10.81-.61-21.69-.12-32.53-.24-.39 2.61-.97 5.19-1.44 7.78 1.49.6 2.99 1.33 4.65 1.18 6.18.02 12.36-.08 18.54.05.99 12.57-6.31 25.76-18.24 30.43-7.95 3.41-17.45 1.31-23.74-4.47-7.97-7.36-11.48-18.23-13-28.68-.22-7.36-.72-14.88 1.26-22.06 2.2-11.17 9.16-22.32 20.37-26.14 6.89-2.91 14.67-.29 20.56 3.7 6.39 4.17 9.71 11.4 11.96 18.43 3.34 0 6.69.01 10.04-.04.04-10.48-.01-20.96.02-31.45-3.13-.06-6.26-.05-9.39.03.01 4.59.07 9.19-.03 13.79-4.43-4.12-7.7-9.55-13.33-12.25-6.45-4.11-14.32-3.97-21.64-3.2zm-208.21 1.8c-.22 5.39-.16 10.79-.08 16.19 2.6-.08 5.35-.17 7.42 1.66-.14 20.93-.04 41.86-.05 62.79.14 1.54-.64 2.9-1.19 4.29-2.06.02-4.12.04-6.18.08-.08 5.4-.14 10.81.08 16.21 17.95-.14 35.9.07 53.84-.11 9.03-.95 18.52-4.95 23.31-13.07 5.64-9.5 6.08-22.35-.34-31.59-2.42-3.91-6.58-6.11-10.15-8.79 3.22-2.75 7.16-5.01 9.02-9 5.71-12.09.88-28.18-10.63-35.05-4.27-2.7-9.54-2.48-14.35-3.39-16.89-.36-33.8-.06-50.7-.22zm694.14.03c-1.05 2.51-1.97 5.06-2.69 7.68-6.58 21.69-13.26 43.35-19.86 65.03-1.28 4.21-2.35 8.5-4.33 12.46-2.28-.02-4.55.01-6.82.07-.1 5.31-.02 10.62-.08 15.93 7.61-.09 15.28 1.62 22.81-.12 1.52-7.02 4.17-13.74 5.45-20.81 5.29-1.96 10.83.35 16.25-.73 6.06-.19 12.26-.7 18.23.68 1.37 7.06 3.98 13.82 5.49 20.85 7.24 1 14.69 1.31 21.92.07-.09-5.06-.12-10.12.02-15.17-2.23-.83-4.62-.86-6.95-.96-9.1-28.07-17.47-56.39-26.54-84.47l-.64-.33c-7.41-.42-14.85-.03-22.26-.18zM128.57 65.56c-15.35 15.33-16.31 42.2-3.32 59.27 4.82 6.49 12.28 10.39 19.95 12.44 10.06 1.85 20.93-.85 28.88-7.33 6.11-4.84 9.37-12.1 11.47-19.41-5.96-.27-11.92-.01-17.88.03-2.17 3.35-4.14 7.06-7.57 9.3-3.7 2.76-8.64 1.98-12.91 1.54-7.9-2.98-12.24-11.76-11.86-19.89 15.93-.08 31.87-.04 47.8-.02 1.34.24 2.45-.15 3.31-1.18.84-8.81-1.8-17.54-5.6-25.4-4.12-8.38-11.89-14.93-20.97-17.22-10.84-3.38-23.08.32-31.3 7.87zm902.3 3.37c-5.57 7.03-9.13 16.01-8.67 25.06.05 4.52-.22 9.07.39 13.56 1.61 6.79 4.47 13.42 9.14 18.68 5.24 6.15 12.87 9.82 20.69 11.37 8.57 1.07 17.34-1.14 24.55-5.84 7.2-4.91 11.9-12.8 13.68-21.26-5.95-.21-11.89 0-17.83.08-2.56 4.49-5.71 9.35-10.92 10.95-4.16.35-8.81.86-12.44-1.64-6.18-3.8-8.96-11.43-9.19-18.39 17.18-.06 34.36-.04 51.54-.01.16-4.89.57-10-1.17-14.68-1.99-6.59-4.47-13.23-8.9-18.61-5.37-6.54-13.43-10.46-21.72-11.64-10.97-1.03-22.31 3.7-29.15 12.37zm-722.25-8.95c-8.37 3.21-13.99 11.56-15.19 20.27 3.56.06 7.13.3 10.68-.06 1.84-2.68 1.99-6.23 4.22-8.7 2.1-2.7 5.37-4.38 8.83-4.22 5.75.03 12.79-1.3 17.04 3.63 5.19 4.33 3.32 11.56 3.47 17.44-4.96-.16-9.75 1.18-14.66 1.57-8.63 1.37-17.57 3.26-24.83 8.38-7.02 4.89-9.52 14.76-6.59 22.64 2.3 8.14 9.29 14.58 17.41 16.68 7.93 1.22 16.06-1.25 22.36-6.12 2.47-2.11 4.54-4.64 6.98-6.79.25 3.58.23 7.18.15 10.76 7 1.33 14.16.85 21.19.05-.09-3.05-.77-6.01-1.47-8.96-3.3-.22-6.81.52-9.9-.94.28-13.88.06-27.77.12-41.65.15-5.67-1.25-11.43-4.35-16.21-3.71-5.81-10.57-8.77-17.16-9.83-6.14-.72-12.59-.57-18.3 2.06zm509.09-.5c-1.8 3.86-1.63 8.27-2.79 12.33-1.88 9.59-3.89 19.15-5.69 28.75-1.31 5.3-1.45 10.96-4.31 15.78-2.55-12.72-5.48-25.37-8.36-38.01-.26-1.54-.28-3.09-.35-4.64 2.09-.06 4.19-.13 6.3-.23-.03-4.55.15-9.09-.02-13.64-.32-.33-.95-1-1.27-1.33-8.91-.08-17.83.09-26.74-.07-1.22 4.94-1.36 10.33-.01 15.25 1.85-.03 3.71-.01 5.58.03 4.88 19.03 9.8 38.04 14.59 57.09.49 1.66 1.21 3.24 1.9 4.84 6.23-.14 12.47.02 18.71-.13 1.88-8.48 3.74-16.97 5.53-25.47 2.16-8.8 3.41-17.82 6.26-26.44 3.77 17.28 7.88 34.48 11.56 51.78 6.49.33 13 .28 19.5.05 4.5-17.66 8.8-35.37 13.24-53.04.67-2.57.93-5.27 2.11-7.68 1.71-1.47 4.08-1.01 6.17-1.25.05-4.98.11-9.97-.07-14.95-9.65.02-19.3-.14-28.94.09-.13 4.91-.09 9.83-.04 14.74 2.43.17 4.84.48 7.23 1.03-2.88 12.88-5.51 25.81-8.42 38.69l-1.56-.62c-1.88-3.78-1.8-8.12-2.93-12.13-2.5-12.78-5.28-25.51-7.63-38.32-.46-1.12-.62-2.61-1.69-3.32-4.77-.82-9.66-1.23-14.47-.39-1.12.3-2.88-.16-3.39 1.21zm-427.87 12.5c-.34-4.28-.15-8.58-.37-12.86l-.88-.7c-6.77-.34-13.55-.03-20.32-.14-.04 2.83-.03 5.67.01 8.5 3.29-.06 6.72-.24 9.81 1.12.74 1.91 1.19 3.96 1.15 6.01-.04 15.39-.04 30.79 0 46.18.03 2.05-.42 4.1-1.14 6.01-3.1 1.34-6.53 1.19-9.82 1.12-.04 2.84-.05 5.69-.04 8.54 10.45-.06 20.9.12 31.34-.11-.02-2.63.08-5.27-.05-7.9-2.59-2.55-6.81-.79-10.13-1.3-.18-12.48-.04-24.97-.08-37.45-.4-7.47 4.14-14.25 9.59-18.96 3.91-3.43 10.03-5.14 14.71-2.28 3.52 2.02 4.86 6.36 4.82 10.22.13 18.72-.04 37.45.08 56.17.32.34.95 1.03 1.27 1.38 6.6.13 13.21-.02 19.82.03.09-3.08.11-6.16.09-9.24-3.69.05-7.43.16-10.98-1.01.06-10.44-.07-20.89.05-31.33.84-4.93.29-10.21 2.82-14.73 3.07-6.8 9.25-13.88 17.44-13.03 4.16-.61 7.72 2.62 8.71 6.47 1.05 4.35 1.83 8.82 1.65 13.31 0 16.51-.12 33.02.06 49.53 6.55-.24 13.29.66 19.72-.43.73-2.82.22-5.8.34-8.68-3.32-.13-6.64-.16-9.96-.17-.24-16.75.05-33.5-.14-50.25-.75-5.67-1.92-12.01-6.57-15.87-4.59-4.04-11.17-2.93-16.76-2.59-7.69 1.5-11.66 8.74-16.53 14.01-1.32-4.02-2.52-8.43-6.05-11.13-4.2-3.84-10.27-3.09-15.48-2.82-8.18 1.31-13.24 8.47-18.18 14.38zm614.38-14.21c-6.17 1.67-9.28 7.67-13.49 11.91.07-3.48.05-6.95.02-10.43-7.82-.05-15.64-.06-23.46.01-.04 4.78-.07 9.55.06 14.32 2.07.02 4.16.04 6.25.04.07 3.13.46 6.24.64 9.37.23 4.35-.79 8.66-.46 13.02.72 6.97.47 14.01.42 21.01-.19 1.28-.3 3.75-2.22 3.4-1.81.08-3.6.1-5.39.16-.09 4.95-.09 9.91 0 14.87 11.21.26 22.44.04 33.66.13.39-5.04.34-10.11.03-15.15-2.59 0-5.16 0-7.73.08-1.67-5.34-.51-11.02-.83-16.51.06-8.36-1.4-18.45 5.69-24.58 5.31-5.55 13.44-3.85 20.28-3.66.03-5.91.06-11.83-.02-17.74-4.44-.7-9-.89-13.45-.25zm-375.96 3.28C616.31 68.04 609.4 82.32 610.2 96c.09 5.59-.49 11.38 1.62 16.7 3.06 10.65 11.14 20.08 21.86 23.44 10.35 4.1 22.6.54 30.36-7.11 3.83-3.97 7.74-8.86 7.73-14.65-3.62.07-7.23.16-10.84.18-2.9 4.34-5.31 9.52-10.25 11.91-7.35 3.94-16.8 1.05-22.12-4.94-4.86-5.95-6.66-13.83-7.13-21.35 3.45-.91 7.04-.51 10.58-.57 13.87-.01 27.74.04 41.61-.02.45-10.67-2.25-21.77-8.69-30.41-4.99-6.27-12.59-11.42-20.89-10.99-5.4-.18-11.09-.26-15.78 2.86zm275.37-.87c-9.07 3.56-16.51 13.08-15.16 23.14 5.56-.01 11.12.19 16.69.06.24-5.19 3.02-11.29 8.84-11.82 4.61-.04 10.35-1.32 13.8 2.63 3.27 3.15 2.89 7.98 2.72 12.13-11.36 1.09-23.16 1.84-33.66 6.74-7.6 3.44-13.45 11.35-12.63 19.93-1.32 13.57 11.84 24.89 24.78 24.79 8.55.42 16.53-4.17 22.49-9.99.1 2.53.11 5.05.05 7.58 3.7 1.24 7.61.84 11.45.88 3.83-.03 7.76.35 11.48-.88-.16-4.62-.06-9.24-.12-13.86-1.97-.09-3.92-.16-5.87-.21-.5-13.78.28-27.58-.16-41.36-.87-12.22-12.26-21.85-24.3-21.71-6.8.25-14.04-1.13-20.4 1.95z"/><path d="M51.42 51.42c6.55-.04 13.1-.17 19.65.06 4.59.03 8.67 3.06 11.05 6.82.86 4.2 1.3 9.46-2.05 12.74-2.49 2.8-6.21 4.71-10.01 4.53-6.2 0-12.4.01-18.6-.04-.16-8.04-.11-16.08-.04-24.11zM725.44 68.66c1.26-4.79 2.93-9.49 3.45-14.44 3.15 6.85 4.61 14.28 6.74 21.47 2.01 7.55 4.29 15.03 6.21 22.61-6.63.27-13.26.07-19.89.16-1.65.14-3.22-.34-4.67-1.06 2.98-9.51 5.4-19.17 8.16-28.74zM526.65 67.16c6.95-2.54 15.05 1.03 19 7.05 3.69 5.18 4.87 11.59 5.78 17.75.49 9.02-.49 18.58-5.17 26.5-3.79 6.18-11.93 10.88-19.09 7.89-7.45-2.1-13.35-8.37-15.4-15.78-2.13-5.97-1.06-12.4-1.45-18.6-1.03-10.69 6.55-21.04 16.33-24.81zM633.82 69.51c4.38-2.76 9.96-2.53 14.86-1.66 8.65 3.68 12.71 13.79 12.97 22.65-13.15.18-26.3.06-39.44.06-.11-8.33 4.19-16.95 11.61-21.05zM136.24 87.47c.2-10.19 12.89-18.6 22.12-13.45 5.08 2.44 8.21 7.78 8.42 13.34-10.18.23-20.36.04-30.54.11zM1046.54 76.53c3.47-2.71 7.89-4.66 12.39-4 6.96 1.23 12.72 7.71 12.7 14.86-10.42.1-20.85.17-31.26-.04 1.39-3.92 2.81-8.11 6.17-10.82zM51.42 91.42c6.88-.06 13.76-.13 20.64.02 5.36-.09 10.5 3.34 12.81 8.12 3.07 7.29-.89 17.02-8.93 18.82-8.15.55-16.35.15-24.52.2-.08-9.05-.08-18.11 0-27.16zM316.53 100.17c7.18-1.91 14.56-3.08 21.92-3.91-.24 6.63 1.35 13.82-2.01 19.91-3.63 7.14-11.23 12.67-19.44 12.34-4.58.2-8.86-2.6-11.43-6.24-2.96-3.98-2.59-9.37-1.75-13.99 2.66-4.58 7.81-6.79 12.71-8.11zM910.56 103.18c6.43-2.3 13.3-3.2 20.12-2.93-.27 5.05.95 10.68-2.01 15.17-4.2 7.77-16.1 11.35-22.89 4.84-2.9-2.18-2.52-6.07-2.37-9.27.04-3.96 3.83-6.5 7.15-7.81z"/></g><g fill="#231F20"><path d="M489.74 30.29c6.68-.58 13.39-.17 20.08-.29.05 14.46 0 28.92.02 43.38 5.57-5.49 10.32-12.66 18.22-14.91 4.26-.43 8.6-.49 12.84.09 12.4 4.35 19.27 17.3 21.37 29.58.53 6.22.55 12.51.04 18.73-2.04 11.06-8.11 22-18.16 27.6-4.8 2.92-10.7 2.25-16.04 1.83-7.68-1.61-12.5-8.14-17.49-13.57-.27 4.08 0 8.17-.18 12.26-.26.27-.79.81-1.06 1.08-6.53.42-13.1.08-19.65.13-.1-3.25-.34-6.55.52-9.73 3.16.01 6.38.22 9.48-.61-.04-28.72-.02-57.44-.02-86.16-3.05-.27-6.12-.29-9.17-.27-.66-3.01-.91-6.07-.8-9.14zm36.91 36.87c-9.78 3.77-17.36 14.12-16.33 24.81.39 6.2-.68 12.63 1.45 18.6 2.05 7.41 7.95 13.68 15.4 15.78 7.16 2.99 15.3-1.71 19.09-7.89 4.68-7.92 5.66-17.48 5.17-26.5-.91-6.16-2.09-12.57-5.78-17.75-3.95-6.02-12.05-9.59-19-7.05zM571.4 30.08c6.78-.16 13.56-.05 20.34-.08.09 31.54-.09 63.09.09 94.63 1.31 3.62 6.63 1.18 9.68 1.88.09 3.02.11 6.05.15 9.07-4.84.91-9.77.66-14.66.66-5.54-.06-11.13.39-16.59-.79.06-2.96.08-5.91.18-8.86 3.58-.11 7.16-.11 10.75-.2.23-29.25.17-58.51.03-87.76-3.3-.08-6.6-.11-9.9-.15-.06-2.8-.07-5.6-.07-8.4zM232.35 32.59c7.32-.77 15.19-.91 21.64 3.2 5.63 2.7 8.9 8.13 13.33 12.25.1-4.6.04-9.2.03-13.79 3.13-.08 6.26-.09 9.39-.03-.03 10.49.02 20.97-.02 31.45-3.35.05-6.7.04-10.04.04-2.25-7.03-5.57-14.26-11.96-18.43-5.89-3.99-13.67-6.61-20.56-3.7-11.21 3.82-18.17 14.97-20.37 26.14-1.98 7.18-1.48 14.7-1.26 22.06 1.52 10.45 5.03 21.32 13 28.68 6.29 5.78 15.79 7.88 23.74 4.47 11.93-4.67 19.23-17.86 18.24-30.43-6.18-.13-12.36-.03-18.54-.05-1.66.15-3.16-.58-4.65-1.18.47-2.59 1.05-5.17 1.44-7.78 10.84.12 21.72-.37 32.53.24.47 12.07.06 24.18.2 36.27-.13 4.38.32 8.8-.26 13.16-3.19.91-6.61.21-9.89.41-.02-5.11-.02-10.24-1.05-15.27-3.98 8.86-12.56 14.71-21.66 17.33-4.18.54-8.44.51-12.63.08-10.72-2.6-19.75-10.28-25.14-19.77-7.65-13.38-9.79-29.48-7.34-44.58 2.09-11.6 6.75-23.18 15.41-31.46 4.45-4.58 10.25-7.73 16.42-9.31zM24.14 34.39c16.9.16 33.81-.14 50.7.22 4.81.91 10.08.69 14.35 3.39 11.51 6.87 16.34 22.96 10.63 35.05-1.86 3.99-5.8 6.25-9.02 9 3.57 2.68 7.73 4.88 10.15 8.79 6.42 9.24 5.98 22.09.34 31.59-4.79 8.12-14.28 12.12-23.31 13.07-17.94.18-35.89-.03-53.84.11-.22-5.4-.16-10.81-.08-16.21 2.06-.04 4.12-.06 6.18-.08.55-1.39 1.33-2.75 1.19-4.29.01-20.93-.09-41.86.05-62.79-2.07-1.83-4.82-1.74-7.42-1.66-.08-5.4-.14-10.8.08-16.19zm27.28 17.03c-.07 8.03-.12 16.07.04 24.11 6.2.05 12.4.04 18.6.04 3.8.18 7.52-1.73 10.01-4.53 3.35-3.28 2.91-8.54 2.05-12.74-2.38-3.76-6.46-6.79-11.05-6.82-6.55-.23-13.1-.1-19.65-.06zm0 40c-.08 9.05-.08 18.11 0 27.16 8.17-.05 16.37.35 24.52-.2 8.04-1.8 12-11.53 8.93-18.82-2.31-4.78-7.45-8.21-12.81-8.12-6.88-.15-13.76-.08-20.64-.02zM718.28 34.42c7.41.15 14.85-.24 22.26.18l.64.33c9.07 28.08 17.44 56.4 26.54 84.47 2.33.1 4.72.13 6.95.96-.14 5.05-.11 10.11-.02 15.17-7.23 1.24-14.68.93-21.92-.07-1.51-7.03-4.12-13.79-5.49-20.85-5.97-1.38-12.17-.87-18.23-.68-5.42 1.08-10.96-1.23-16.25.73-1.28 7.07-3.93 13.79-5.45 20.81-7.53 1.74-15.2.03-22.81.12.06-5.31-.02-10.62.08-15.93 2.27-.06 4.54-.09 6.82-.07 1.98-3.96 3.05-8.25 4.33-12.46 6.6-21.68 13.28-43.34 19.86-65.03.72-2.62 1.64-5.17 2.69-7.68zm7.16 34.24c-2.76 9.57-5.18 19.23-8.16 28.74 1.45.72 3.02 1.2 4.67 1.06 6.63-.09 13.26.11 19.89-.16-1.92-7.58-4.2-15.06-6.21-22.61-2.13-7.19-3.59-14.62-6.74-21.47-.52 4.95-2.19 9.65-3.45 14.44zM128.57 65.56c8.22-7.55 20.46-11.25 31.3-7.87 9.08 2.29 16.85 8.84 20.97 17.22 3.8 7.86 6.44 16.59 5.6 25.4-.86 1.03-1.97 1.42-3.31 1.18-15.93-.02-31.87-.06-47.8.02-.38 8.13 3.96 16.91 11.86 19.89 4.27.44 9.21 1.22 12.91-1.54 3.43-2.24 5.4-5.95 7.57-9.3 5.96-.04 11.92-.3 17.88-.03-2.1 7.31-5.36 14.57-11.47 19.41-7.95 6.48-18.82 9.18-28.88 7.33-7.67-2.05-15.13-5.95-19.95-12.44-12.99-17.07-12.03-43.94 3.32-59.27zm7.67 21.91c10.18-.07 20.36.12 30.54-.11-.21-5.56-3.34-10.9-8.42-13.34-9.23-5.15-21.92 3.26-22.12 13.45zM1030.87 68.93c6.84-8.67 18.18-13.4 29.15-12.37 8.29 1.18 16.35 5.1 21.72 11.64 4.43 5.38 6.91 12.02 8.9 18.61 1.74 4.68 1.33 9.79 1.17 14.68-17.18-.03-34.36-.05-51.54.01.23 6.96 3.01 14.59 9.19 18.39 3.63 2.5 8.28 1.99 12.44 1.64 5.21-1.6 8.36-6.46 10.92-10.95 5.94-.08 11.88-.29 17.83-.08-1.78 8.46-6.48 16.35-13.68 21.26-7.21 4.7-15.98 6.91-24.55 5.84-7.82-1.55-15.45-5.22-20.69-11.37-4.67-5.26-7.53-11.89-9.14-18.68-.61-4.49-.34-9.04-.39-13.56-.46-9.05 3.1-18.03 8.67-25.06zm15.67 7.6c-3.36 2.71-4.78 6.9-6.17 10.82 10.41.21 20.84.14 31.26.04.02-7.15-5.74-13.63-12.7-14.86-4.5-.66-8.92 1.29-12.39 4zM308.62 59.98c5.71-2.63 12.16-2.78 18.3-2.06 6.59 1.06 13.45 4.02 17.16 9.83 3.1 4.78 4.5 10.54 4.35 16.21-.06 13.88.16 27.77-.12 41.65 3.09 1.46 6.6.72 9.9.94.7 2.95 1.38 5.91 1.47 8.96-7.03.8-14.19 1.28-21.19-.05.08-3.58.1-7.18-.15-10.76-2.44 2.15-4.51 4.68-6.98 6.79-6.3 4.87-14.43 7.34-22.36 6.12-8.12-2.1-15.11-8.54-17.41-16.68-2.93-7.88-.43-17.75 6.59-22.64 7.26-5.12 16.2-7.01 24.83-8.38 4.91-.39 9.7-1.73 14.66-1.57-.15-5.88 1.72-13.11-3.47-17.44-4.25-4.93-11.29-3.6-17.04-3.63-3.46-.16-6.73 1.52-8.83 4.22-2.23 2.47-2.38 6.02-4.22 8.7-3.55.36-7.12.12-10.68.06 1.2-8.71 6.82-17.06 15.19-20.27zm7.91 40.19c-4.9 1.32-10.05 3.53-12.71 8.11-.84 4.62-1.21 10.01 1.75 13.99 2.57 3.64 6.85 6.44 11.43 6.24 8.21.33 15.81-5.2 19.44-12.34 3.36-6.09 1.77-13.28 2.01-19.91-7.36.83-14.74 2-21.92 3.91zM817.71 59.48c.51-1.37 2.27-.91 3.39-1.21 4.81-.84 9.7-.43 14.47.39 1.07.71 1.23 2.2 1.69 3.32 2.35 12.81 5.13 25.54 7.63 38.32 1.13 4.01 1.05 8.35 2.93 12.13l1.56.62c2.91-12.88 5.54-25.81 8.42-38.69-2.39-.55-4.8-.86-7.23-1.03-.05-4.91-.09-9.83.04-14.74 9.64-.23 19.29-.07 28.94-.09.18 4.98.12 9.97.07 14.95-2.09.24-4.46-.22-6.17 1.25-1.18 2.41-1.44 5.11-2.11 7.68-4.44 17.67-8.74 35.38-13.24 53.04-6.5.23-13.01.28-19.5-.05-3.68-17.3-7.79-34.5-11.56-51.78-2.85 8.62-4.1 17.64-6.26 26.44-1.79 8.5-3.65 16.99-5.53 25.47-6.24.15-12.48-.01-18.71.13-.69-1.6-1.41-3.18-1.9-4.84-4.79-19.05-9.71-38.06-14.59-57.09-1.87-.04-3.73-.06-5.58-.03-1.35-4.92-1.21-10.31.01-15.25 8.91.16 17.83-.01 26.74.07.32.33.95 1 1.27 1.33.17 4.55-.01 9.09.02 13.64-2.11.1-4.21.17-6.3.23.07 1.55.09 3.1.35 4.64 2.88 12.64 5.81 25.29 8.36 38.01 2.86-4.82 3-10.48 4.31-15.78 1.8-9.6 3.81-19.16 5.69-28.75 1.16-4.06.99-8.47 2.79-12.33zM389.84 71.98c4.94-5.91 10-13.07 18.18-14.38 5.21-.27 11.28-1.02 15.48 2.82 3.53 2.7 4.73 7.11 6.05 11.13 4.87-5.27 8.84-12.51 16.53-14.01 5.59-.34 12.17-1.45 16.76 2.59 4.65 3.86 5.82 10.2 6.57 15.87.19 16.75-.1 33.5.14 50.25 3.32.01 6.64.04 9.96.17-.12 2.88.39 5.86-.34 8.68-6.43 1.09-13.17.19-19.72.43-.18-16.51-.06-33.02-.06-49.53.18-4.49-.6-8.96-1.65-13.31-.99-3.85-4.55-7.08-8.71-6.47-8.19-.85-14.37 6.23-17.44 13.03-2.53 4.52-1.98 9.8-2.82 14.73-.12 10.44.01 20.89-.05 31.33 3.55 1.17 7.29 1.06 10.98 1.01.02 3.08 0 6.16-.09 9.24-6.61-.05-13.22.1-19.82-.03-.32-.35-.95-1.04-1.27-1.38-.12-18.72.05-37.45-.08-56.17.04-3.86-1.3-8.2-4.82-10.22-4.68-2.86-10.8-1.15-14.71 2.28-5.45 4.71-9.99 11.49-9.59 18.96.04 12.48-.1 24.97.08 37.45 3.32.51 7.54-1.25 10.13 1.3.13 2.63.03 5.27.05 7.9-10.44.23-20.89.05-31.34.11-.01-2.85 0-5.7.04-8.54 3.29.07 6.72.22 9.82-1.12.72-1.91 1.17-3.96 1.14-6.01-.04-15.39-.04-30.79 0-46.18.04-2.05-.41-4.1-1.15-6.01-3.09-1.36-6.52-1.18-9.81-1.12-.04-2.83-.05-5.67-.01-8.5 6.77.11 13.55-.2 20.32.14l.88.7c.22 4.28.03 8.58.37 12.86zM1004.22 57.77c4.45-.64 9.01-.45 13.45.25.08 5.91.05 11.83.02 17.74-6.84-.19-14.97-1.89-20.28 3.66-7.09 6.13-5.63 16.22-5.69 24.58.32 5.49-.84 11.17.83 16.51 2.57-.08 5.14-.08 7.73-.08.31 5.04.36 10.11-.03 15.15-11.22-.09-22.45.13-33.66-.13-.09-4.96-.09-9.92 0-14.87 1.79-.06 3.58-.08 5.39-.16 1.92.35 2.03-2.12 2.22-3.4.05-7 .3-14.04-.42-21.01-.33-4.36.69-8.67.46-13.02-.18-3.13-.57-6.24-.64-9.37-2.09 0-4.18-.02-6.25-.04-.13-4.77-.1-9.54-.06-14.32 7.82-.07 15.64-.06 23.46-.01.03 3.48.05 6.95-.02 10.43 4.21-4.24 7.32-10.24 13.49-11.91zM628.26 61.05c4.69-3.12 10.38-3.04 15.78-2.86 8.3-.43 15.9 4.72 20.89 10.99 6.44 8.64 9.14 19.74 8.69 30.41-13.87.06-27.74.01-41.61.02-3.54.06-7.13-.34-10.58.57.47 7.52 2.27 15.4 7.13 21.35 5.32 5.99 14.77 8.88 22.12 4.94 4.94-2.39 7.35-7.57 10.25-11.91 3.61-.02 7.22-.11 10.84-.18.01 5.79-3.9 10.68-7.73 14.65-7.76 7.65-20.01 11.21-30.36 7.11-10.72-3.36-18.8-12.79-21.86-23.44-2.11-5.32-1.53-11.11-1.62-16.7-.8-13.68 6.11-27.96 18.06-34.95zm5.56 8.46c-7.42 4.1-11.72 12.72-11.61 21.05 13.14 0 26.29.12 39.44-.06-.26-8.86-4.32-18.97-12.97-22.65-4.9-.87-10.48-1.1-14.86 1.66zM903.63 60.18c6.36-3.08 13.6-1.7 20.4-1.95 12.04-.14 23.43 9.49 24.3 21.71.44 13.78-.34 27.58.16 41.36 1.95.05 3.9.12 5.87.21.06 4.62-.04 9.24.12 13.86-3.72 1.23-7.65.85-11.48.88-3.84-.04-7.75.36-11.45-.88.06-2.53.05-5.05-.05-7.58-5.96 5.82-13.94 10.41-22.49 9.99-12.94.1-26.1-11.22-24.78-24.79-.82-8.58 5.03-16.49 12.63-19.93 10.5-4.9 22.3-5.65 33.66-6.74.17-4.15.55-8.98-2.72-12.13-3.45-3.95-9.19-2.67-13.8-2.63-5.82.53-8.6 6.63-8.84 11.82-5.57.13-11.13-.07-16.69-.06-1.35-10.06 6.09-19.58 15.16-23.14zm6.93 43c-3.32 1.31-7.11 3.85-7.15 7.81-.15 3.2-.53 7.09 2.37 9.27 6.79 6.51 18.69 2.93 22.89-4.84 2.96-4.49 1.74-10.12 2.01-15.17-6.82-.27-13.69.63-20.12 2.93z"/></g></g></svg>